<svg width="201" height="201" fill="none" xmlns="http://www.w3.org/2000/svg"><g clip-path="url(#a)"><path d="M47.2783 39.5531V155.917h-14.091V39.5531h14.091ZM169.792 75.9167h-14.09c-.834-4.053-2.292-7.6136-4.375-10.6818-2.046-3.0682-4.546-5.6439-7.5-7.7272-2.917-2.1213-6.156-3.7122-9.716-4.7728-3.561-1.0606-7.273-1.5909-11.137-1.5909-7.045 0-13.428 1.7803-19.147 5.3409-5.6823 3.5606-10.2088 8.8068-13.58 15.7387-3.3333 6.9318-5 15.4356-5 25.5113 0 10.0761 1.6667 18.5791 5 25.5111 3.3712 6.932 7.8977 12.178 13.58 15.739 5.719 3.561 12.102 5.341 19.147 5.341 3.864 0 7.576-.53 11.137-1.591 3.56-1.061 6.799-2.633 9.716-4.716 2.954-2.121 5.454-4.716 7.5-7.784 2.083-3.106 3.541-6.667 4.375-10.682h14.09c-1.06 5.947-2.992 11.269-5.795 15.966-2.803 4.697-6.288 8.693-10.455 11.989-4.166 3.257-8.844 5.738-14.034 7.443-5.151 1.704-10.663 2.557-16.534 2.557-9.924 0-18.75-2.425-26.477-7.273-7.7273-4.849-13.8068-11.742-18.2386-20.682-4.4319-8.939-6.6478-19.545-6.6478-31.8181 0-12.2727 2.2159-22.8788 6.6478-31.8182 4.4318-8.9393 10.5113-15.8333 18.2386-20.6818 7.727-4.8485 16.553-7.2727 26.477-7.2727 5.871 0 11.383.8523 16.534 2.5568 5.19 1.7046 9.868 4.2046 14.034 7.5 4.167 3.2576 7.652 7.2349 10.455 11.9318 2.803 4.6591 4.735 9.9811 5.795 15.9659Z" fill="currentColor"/><circle cx="107.268" cy="84.9167" r="5" fill="currentColor"/><circle cx="138.268" cy="84.9167" r="5" fill="currentColor"/><path d="M100.268 107.917c14.232 12.083 30.732 12.083 45 0" stroke="currentColor" stroke-width="5"/></g><defs><clipPath id="a"><path fill="#fff" transform="translate(.2683 .9167)" d="M0 0h200v200H0z"/></clipPath></defs></svg>